<svg width="78" height="77" viewBox="0 0 78 77" fill="none" xmlns="http://www.w3.org/2000/svg">
<rect y="2" width="44" height="75" fill="#8E59FF"/>
<path d="M7.17916 21.6L19.2432 21.6L21.3232 48.952V54.256H22.5712V48.952L24.6512 21.6H36.7152L36.7152 58H30.4752L30.4752 33.664L31.0992 25.344H29.8512L27.1472 58H16.8512L14.0432 25.344H12.7952L13.4192 33.664L13.4192 58H7.17916L7.17916 21.6ZM47.547 51.448H50.979V28.152H47.547L47.547 21.6L63.511 21.6C65.2443 21.6 66.7697 21.8427 68.087 22.328C69.439 22.8133 70.5657 23.472 71.467 24.304C72.403 25.136 73.0963 26.1413 73.547 27.32C74.0323 28.464 74.275 29.712 74.275 31.064V31.688C74.275 33.768 73.6857 35.432 72.507 36.68C71.363 37.928 69.907 38.7947 68.139 39.28V40.216C69.907 40.7013 71.363 41.5853 72.507 42.868C73.6857 44.116 74.275 45.78 74.275 47.86V48.484C74.275 49.836 74.0323 51.1013 73.547 52.28C73.0963 53.424 72.403 54.4293 71.467 55.296C70.5657 56.128 69.439 56.7867 68.087 57.272C66.7697 57.7573 65.2443 58 63.511 58H47.547V51.448ZM57.843 51.448H62.835C64.291 51.448 65.4697 51.136 66.371 50.512C67.2723 49.888 67.723 48.848 67.723 47.392V47.08C67.723 45.624 67.2723 44.584 66.371 43.96C65.4697 43.336 64.291 43.024 62.835 43.024H57.843V51.448ZM57.843 36.472H62.835C64.291 36.472 65.4697 36.1773 66.371 35.588C67.2723 34.964 67.723 33.924 67.723 32.468V32.156C67.723 30.7 67.2723 29.6773 66.371 29.088C65.4697 28.464 64.291 28.152 62.835 28.152L57.843 28.152V36.472Z" fill="white"/>
</svg>
